<svg xmlns="http://www.w3.org/2000/svg" xmlns:xlink="http://www.w3.org/1999/xlink" viewBox="0 0 24 24">
  <path fill="#646cff" d="M11.5725 0c-.1763 0-.3098.0013-.3584.0067-.0516.0053-.2159.021-.3636.0328-3.4088.3073-6.6017 2.1463-8.624 4.9728C1.1004 6.584.3802 8.3666.1082 10.255c-.0962.659-.108.8537-.108 1.7474s.012 1.0884.108 1.7476c.652 4.506 3.8591 8.2919 8.2087 9.6945.7789.2511 1.6.4225 2.5337.5255.3636.04 1.9354.04 2.299 0 1.6117-.1783 2.9772-.577 4.3237-1.2643.2065-.1056.2464-.1337.2183-.1573-.0188-.0139-.8987-1.1938-1.9543-2.62l-1.919-2.592-2.4047-3.5583c-1.3231-1.9564-2.4117-3.556-2.4211-3.556-.0094-.0026-.0187 1.5787-.0235 3.509-.0067 3.3802-.0093 3.5162-.0516 3.596-.061.115-.108.1618-.2064.2134-.075.0374-.1408.0445-.225.0164-.142-.0516-.2712-.22-.3202-.3336-.1321-.1554-.0146-.4977.0618-.8214.0364-.1627.1048-.707.1048-.707 0-.6785-.0314-1.268-.0618-1.4479-.0802-.3006-.1582-.4595-.3891-.5562-.1842-.0772-.2104-.0777-.66-.0614-.6344.0297-.774 2.5375-.774 3.2797 0 .1055.0122.7176.0234 1.367.1325 7.27 3.3821 13.2895 9.5606 14.4597 3.4992.7813 7.5046 1.22 11.5015.822 4.1921-.4116 7.83-2.54 10.465-6.1171 1.9197-2.6027 2.5874-5.6695 2.0443-9.3239-.4114-2.7515-1.3923-5.1371-2.9878-7.2098-.7612-1.0064-2.0961-1.9976-3.6725-2.7252-2.447-.8957-5.4385-1.1255-8.4035-.7988-.4973.0541-.544-.0113-1.5666-.6166-.8112-.2074-.9144-.22-1.049-.0567-.19.2288-.8654 3.7798-.8654 3.7798s-.1342 1.725-.1342 1.725c0 1.2797.0122 1.3552.0371 1.3536.1321-.0073 1.3531 1.894 2.5986 4.5442.5089.8628 1.0244 1.7462 1.1435 1.9615 1.1603 2.0536 1.1648 2.0608 1.2019 2.2353.0371.1747.0367.2879 0 .3721-.1693.38-.8443.34-.8443.34-.5193-.0332-1.613.462-2.343.9138-.7232.4453-1.1705.9526-1.1705.9526-.2477.2971-.3048.355-.3202.4045-.0547.1756 1.5516 3.363 2.093 3.363.3429 0 .5449-.1241.5449-.1241s1.46-.4224 1.46-.4224c1.075-.1042 1.6254-.05 1.6374.0576.0164.1224-.0898 1.2272-.0898 1.2272s-1.563 4.3966-1.563 4.3966c-.0908.2526-1.8118.4244-2.7801.3721-.9289-.0504-1.9862.1103-2.984.1792-1.26.0862-1.9335-.0737-2.9357-.2886-1.7936-.3851-2.6735-.5356-3.6724-.4519-2.4477.2071-4.3066.541-6.1551 1.3716-2.9412 1.3238-4.9871 3.3638-6.025 5.8697-.6314 1.6141-.8204 2.9374-.8204 4.1576 0 .8362.0646 1.3536.2026 2.1431.3018 1.7326 1.0133 4.166 1.1388 4.9355 1.0079 6.1811 4.0434 11.367 8.1152 13.7856.6512.3844 1.3656.7082 2.5618.7082.9207 0 1.564-.0694 2.1787-.2244 1.5412-.3876 2.0064-1.3579 2.0064-1.3579z"/>
</svg>